<svg xmlns="http://www.w3.org/2000/svg" version="1.1" xmlns:xlink="http://www.w3.org/1999/xlink" xmlns:svgjs="http://svgjs.dev/svgjs" width="1000" height="1000" viewBox="0 0 1000 1000"><rect width="1000" height="1000" fill="#ffffff"></rect><g transform="matrix(0.7,0,0,0.7,149.57575757575762,392.9249645411145)"><svg viewBox="0 0 396 121" data-background-color="#ffffff" preserveAspectRatio="xMidYMid meet" height="305" width="1000" xmlns="http://www.w3.org/2000/svg" xmlns:xlink="http://www.w3.org/1999/xlink"><defs></defs><g id="tight-bounds" transform="matrix(1,0,0,1,0.23999999999995225,0.18421213360724664)"><svg viewBox="0 0 395.52 120.63157573278554" height="120.63157573278554" width="395.52"><g><svg viewBox="0 0 613.8402872277071 187.21814597629444" height="120.63157573278554" width="395.52"><g><rect width="5.154822049233687" height="187.21814597629444" x="199.67116662027007" y="0" fill="#e5b51e" opacity="1" stroke-width="0" stroke="transparent" fill-opacity="1" class="rect-cb-0" data-fill-palette-color="primary" rx="1%" id="cb-0" data-palette-color="#e5b51e"></rect></g><g transform="matrix(1,0,0,1,218.32028722770713,0.46571678103555314)"><svg viewBox="0 0 395.52 186.28671241422333" height="186.28671241422333" width="395.52"><g><svg viewBox="0 0 395.52 186.28671241422333" height="186.28671241422333" width="395.52"><g><svg viewBox="0 0 395.52 186.28671241422333" height="186.28671241422333" width="395.52"><g transform="matrix(1,0,0,1,0,0)"><svg width="395.52" viewBox="0.9 -33.7 241.95 109.2" height="186.28671241422333" data-palette-color="#e5b51e"><svg></svg><svg></svg><svg></svg><g class="undefined-text-0" data-fill-palette-color="primary" id="text-0"><path d="M0.9-33.7h22.25v3.55h-9.1v30.15h-4.05v-30.15h-9.1zM48.35-18.9v-14.8h4.05v33.7h-4.05v-15.25h-16.35v15.25h-4.05v-33.7h4.05v14.8zM64.15-15.05v11.5h14.75v3.55h-18.8v-33.7h18.55v3.55h-14.5v11.55h12.8v3.55z" data-fill-palette-color="primary" fill="#e5b51e" opacity="1"></path><path d="M27.9 5.4v0 4.15c-1.467-0.767-2.783-1.317-3.95-1.65-1.167-0.333-2.7-0.5-4.6-0.5v0c-3.633 0-6.657 1.233-9.07 3.7-2.42 2.467-3.63 5.683-3.63 9.65v0c0 4.133 1.2 7.433 3.6 9.9 2.4 2.467 5.583 3.7 9.55 3.7v0c3.2 0 5.933-0.85 8.2-2.55v0 4.25c-2.067 1.4-4.9 2.1-8.5 2.1v0c-5.067 0-9.183-1.56-12.35-4.68-3.167-3.113-4.75-7.353-4.75-12.72v0c0-5.067 1.61-9.193 4.83-12.38 3.213-3.18 7.253-4.77 12.12-4.77v0c3.5 0 6.35 0.6 8.55 1.8zM32.5 20.75v0c0-5.3 1.36-9.517 4.08-12.65 2.713-3.133 6.387-4.7 11.02-4.7v0c4.733 0 8.443 1.557 11.13 4.67 2.68 3.12 4.02 7.347 4.02 12.68v0c0 5.3-1.357 9.523-4.07 12.67-2.72 3.153-6.397 4.73-11.03 4.73v0c-4.567 0-8.233-1.583-11-4.75-2.767-3.167-4.15-7.383-4.15-12.65zM36.75 20.75v0c0 4.167 0.993 7.467 2.98 9.9 1.98 2.433 4.62 3.65 7.92 3.65v0c3.433 0 6.093-1.2 7.98-3.6 1.88-2.4 2.82-5.717 2.82-9.95 0-4.233-0.95-7.55-2.85-9.95-1.9-2.4-4.567-3.6-8-3.6v0c-3.4 0-6.057 1.207-7.97 3.62-1.92 2.42-2.88 5.73-2.88 9.93zM72.65 37.75h-4.05l2.45-33.7h5.15l4.45 12.3 5.4 15.7c1.933-5.467 3.833-10.7 5.7-15.7v0l4.65-12.3h5.15l2.95 33.7h-4.05l-1.15-13.3-1.2-14.95c-1.767 4.933-3.583 9.917-5.45 14.95v0l-4.7 12.55h-3.85l-4.45-12.55-5.1-14.65c0 1.3-0.317 6.183-0.95 14.65v0zM115.85 7.5v14.4h5.2c2.533 0 4.517-0.657 5.95-1.97 1.433-1.32 2.15-2.997 2.15-5.03v0c0-2.267-0.733-4.067-2.2-5.4-1.467-1.333-3.55-2-6.25-2v0zM111.8 37.75v-33.7h8.85c3.9 0 6.977 1.007 9.23 3.02 2.247 2.02 3.37 4.63 3.37 7.83v0c0 3-1.117 5.49-3.35 7.47-2.233 1.987-5.183 2.98-8.85 2.98v0h-5.2v12.4zM159.6 25.05v0-21h4.05v20.9c0 4.333-1.09 7.617-3.27 9.85-2.187 2.233-5.23 3.35-9.13 3.35v0c-3.833 0-6.833-1.093-9-3.28-2.167-2.18-3.25-5.353-3.25-9.52v0-21.3h4.05v21.25c0 3.1 0.74 5.383 2.22 6.85 1.487 1.467 3.48 2.2 5.98 2.2v0c5.567 0 8.35-3.1 8.35-9.3zM168.35 4.05h22.25v3.55h-9.1v30.15h-4.05v-30.15h-9.1zM199.45 22.7v11.5h14.75v3.55h-18.8v-33.7h18.55v3.55h-14.5v11.55h12.8v3.55zM229.15 7.55h-4.65v13.45h5.1c2.3 0 4.06-0.627 5.28-1.88 1.213-1.247 1.82-2.853 1.82-4.82v0c0-4.5-2.517-6.75-7.55-6.75zM234 23.8l8.85 13.95h-4.85l-8.25-13.3h-0.4-4.85v13.3h-4.05v-33.7h8.45c3.9 0 6.86 0.917 8.88 2.75 2.013 1.833 3.02 4.367 3.02 7.6v0c-0.067 2.333-0.683 4.317-1.85 5.95-1.167 1.633-2.817 2.783-4.95 3.45z" data-fill-palette-color="primary" fill="#e5b51e" opacity="1"></path><path d="M7.95 45.4v26.55h6.05c4.167 0 7.317-1.293 9.45-3.88 2.133-2.58 3.2-5.803 3.2-9.67v0c0-3.667-1.19-6.75-3.57-9.25-2.387-2.5-5.48-3.75-9.28-3.75v0zM3.85 75.5v-33.7h10c4.967 0 9.043 1.54 12.23 4.62 3.18 3.087 4.77 7.08 4.77 11.98v0c0 4.867-1.473 8.933-4.42 12.2-2.953 3.267-7.08 4.9-12.38 4.9v0zM41.25 75.5h-4.05v-33.7h4.05zM56.3 61.3l-0.65 1.9h11.95l-0.65-1.95-5.25-16.2c-0.4 1.433-2.2 6.85-5.4 16.25zM76.05 75.5h-4.35l-2.95-8.85h-14.25l-3 8.85h-4.35l11.75-33.7h5.6zM90.35 45.3h-4.65v13.45h5.1c2.3 0 4.06-0.627 5.28-1.88 1.213-1.247 1.82-2.853 1.82-4.82v0c0-4.5-2.517-6.75-7.55-6.75zM95.2 61.55l8.85 13.95h-4.85l-8.25-13.3h-0.4-4.85v13.3h-4.05v-33.7h8.45c3.9 0 6.86 0.917 8.88 2.75 2.013 1.833 3.02 4.367 3.02 7.6v0c-0.067 2.333-0.683 4.317-1.85 5.95-1.167 1.633-2.817 2.783-4.95 3.45zM128.85 41.8h4.7l-11.55 21.15v12.55h-4.05v-12.5l-11.45-21.2h4.7l2.55 4.95c1.733 3.333 3.117 6.05 4.15 8.15 1.033 2.1 1.633 3.367 1.8 3.8v0l0.25 0.6c0.3-0.833 2.417-5.017 6.35-12.55v0z" data-fill-palette-color="primary" fill="#e5b51e" opacity="1"></path></g></svg></g></svg></g></svg></g></svg></g><g transform="matrix(1,0,0,1,0,0.46571678103555314)"><svg viewBox="0 0 186.17686806206672 186.28671241422333" height="186.28671241422333" width="186.17686806206672"><g><svg xmlns="http://www.w3.org/2000/svg" xmlns:xlink="http://www.w3.org/1999/xlink" version="1.1" x="0" y="0" viewBox="0 0 100 100.059" enable-background="new 0 0 100 100" xml:space="preserve" width="186.17686806206672" height="186.28671241422333" class="icon-icon-0" data-fill-palette-color="accent" id="icon-0"><g fill="#f5b708" data-fill-palette-color="accent"><path d="M89.6 89.072c-0.236-0.337-0.621-0.538-1.033-0.538H12.697c-0.373 0-0.726 0.164-0.966 0.449L4.15 97.981c-0.317 0.377-0.387 0.902-0.18 1.348 0.208 0.445 0.654 0.73 1.146 0.73h89.767c0.473 0 0.904-0.263 1.123-0.681 0.217-0.419 0.184-0.924-0.088-1.309L89.6 89.072zM87.201 90.126l0.721 1.242h-2.986l-0.621-1.242H87.201zM55.076 90.126h3.061l0.053 1.242h-3.158L55.076 90.126zM54.955 93.413h3.32l0.055 1.241h-3.42L54.955 93.413zM49.252 90.126h3.052l-0.08 1.242h-3.152L49.252 90.126zM48.778 93.413h3.314l-0.082 1.241h-3.411L48.778 93.413zM43.433 90.126h3.032l-0.214 1.242h-3.13L43.433 90.126zM42.606 93.413h3.293l-0.214 1.241h-3.392L42.606 93.413zM37.62 90.126h2.997l-0.347 1.242h-3.095L37.62 90.126zM36.44 93.413h3.258l-0.346 1.241h-3.357L36.44 93.413zM31.813 90.126h2.95l-0.48 1.242h-3.048L31.813 90.126zM30.281 93.413h3.21l-0.479 1.241h-3.31L30.281 93.413zM26.012 90.126h2.891l-0.613 1.242h-2.99L26.012 90.126zM20.216 90.126h2.822l-0.747 1.242h-2.921L20.216 90.126zM14.423 90.126h2.745l-0.879 1.242h-2.844L14.423 90.126zM11.705 97.836H8.346l0.978-1.24h3.259L11.705 97.836zM13.96 94.654h-3.105l0.978-1.241h3.007L13.96 94.654zM18.402 97.836h-3.436l0.845-1.24h3.337L18.402 97.836zM20.316 94.654h-3.183l0.845-1.241h3.084L20.316 94.654zM25.095 97.836h-3.504l0.711-1.24h3.406L25.095 97.836zM26.667 94.654h-3.251l0.711-1.241h3.152L26.667 94.654zM28.219 97.836l0.578-1.24h29.617l0.053 1.24H28.219zM60.91 90.126h3.053l0.186 1.242h-3.15L60.91 90.126zM61.143 93.413h6.193l-0.582-3.287h3.029l1.189 4.528H61.23L61.143 93.413zM61.453 97.836l-0.088-1.24h3.568l0.186 1.24H61.453zM68.123 97.836l-0.221-1.24h3.545l0.318 1.24H68.123zM72.6 90.126h2.996l0.453 1.242h-3.096L72.6 90.126zM73.537 93.413h3.256l0.451 1.241h-3.354L73.537 93.413zM74.799 97.836l-0.354-1.24h3.51l0.451 1.24H74.799zM78.455 90.126H81.4l0.586 1.242h-3.045L78.455 90.126zM79.744 93.413h3.207l0.586 1.241H80.23L79.744 93.413zM81.48 97.836l-0.486-1.24h3.461l0.584 1.24H81.48zM85.957 93.413h3.148l0.721 1.241h-3.25L85.957 93.413zM88.168 97.836l-0.619-1.24h3.4l0.719 1.24H88.168z" fill="#f5b708" data-fill-palette-color="accent"></path><path d="M33.333 84.576c-1.216 1.216 0.695 1.911 0.695 1.911h15.751 0.056 0.056 15.75c0 0 1.91-0.695 0.695-1.911-1.217-1.216-4.518-2.085-4.863-7.296-0.027-0.409-0.011-2.043-0.006-4.169H38.201c0.005 2.126 0.022 3.76-0.005 4.169C37.849 82.491 34.548 83.36 33.333 84.576z" fill="#f5b708" data-fill-palette-color="accent"></path><path d="M96 0H4C1.8 0 0 1.8 0 4v63.921c0 2.2 1.8 4 4 4h92c2.2 0 4-1.8 4-4V4C100 1.8 98.2 0 96 0zM50.616 69.289c-1.679 0-3.04-1.36-3.04-3.039s1.361-3.04 3.04-3.04 3.04 1.361 3.04 3.04S52.295 69.289 50.616 69.289zM94.651 56.262H5.539V5.539h89.112V56.262z" fill="#f5b708" data-fill-palette-color="accent"></path></g></svg><g></g></g></svg></g></svg></g></svg><rect width="395.52" height="120.63157573278554" fill="none" stroke="none" visibility="hidden"></rect></g></svg></g></svg>